<svg xmlns="http://www.w3.org/2000/svg" xmlns:xlink="http://www.w3.org/1999/xlink" viewBox="75 192 200 205">
  <defs>
    <linearGradient id="g10" x1="82.37" y1="267.62" x2="154.71" y2="267.62" gradientUnits="userSpaceOnUse">
      <stop offset="0" stop-color="#fff"/>
      <stop offset="1" stop-color="#60a5fa"/>
    </linearGradient>
    <linearGradient id="g6" x1="195.19" y1="267.62" x2="267.53" y2="267.62" gradientUnits="userSpaceOnUse">
      <stop offset="0" stop-color="#60a5fa"/>
      <stop offset="1" stop-color="#fff"/>
    </linearGradient>
  </defs>
  <!-- Sfondo -->
  <rect x="75" y="192" width="200" height="205" rx="32" fill="#0b132b"/>
  <!-- Arco esterno blu -->
  <path fill="#1d4ed8" d="M249.83,348.83c11.51-15.5,18.32-34.7,18.32-55.49,0-51.47-41.73-93.19-93.2-93.19s-93.19,41.73-93.19,93.19c0,20.84,6.85,40.1,18.41,55.62-14.25-16.96-22.83-38.85-22.83-62.73,0-53.91,43.7-97.61,97.61-97.61s97.62,43.7,97.62,97.61c0,23.83-8.55,45.67-22.73,62.61z"/>
  <!-- Base -->
  <path fill="#1d4ed8" d="M87.34,371.34s-.43,4.56,47.17,4.13l-16.38,1.85s-1.01,4.85,42.74,4.28l-19.81,2.99s7.68,4.99,33.48,5.27c25.8.29,35.49-5.56,35.49-5.56l-19.95-2.71s35.77,2.14,45.89-4.28l-20.09-1.71s39.33-.57,50.02-4.28H87.34z"/>
  <!-- Figura -->
  <path fill="#161a32" d="M252.05,364.45c-5.84-6.98-16.96-5.56-16.96-5.56,0,0-3.7-9.83-19.81-10.55,0,0-1.23-8.59-17.76-12l-6.47-51.72c1.85-.12,3.32-1.64,3.32-3.52,0-3.11-2.47-5.63-5.56-5.72v-13.45h2.32c.53,0,.95-.43.95-.95v-2.51c0-1.92-1.55-3.47-3.47-3.47h-.32c-.98-4.31-5.21-7.7-10.58-8.47v-.95c.53-.56.85-1.32.85-2.15,0-1.74-1.41-3.16-3.16-3.16s-3.16,1.41-3.16,3.16c0,.83.33,1.58.86,2.15v.95c-5.37.77-9.6,4.16-10.58,8.47h-.32c-1.92,0-3.47,1.55-3.47,3.47v2.51c0,.53.43.95.95.95h2.32v13.45c-3.08.09-5.56,2.61-5.56,5.72,0,1.88,1.47,3.4,3.32,3.52l-6.54,52.29c-11.27,2.04-25,7.27-28.15,20.6,0,0-18.67-.05-23.66,7.36-3.41,5.06-7.75,6.2-10.15,6.41h173.17s-6.56.14-12.4-6.84z"/>
  <!-- Busta bianca -->
  <rect fill="#f7f6f6" x="166.19" y="263.13" width="18.53" height="10.55"/>
  <polyline fill="#f7f6f6" points="161.16 304.49 175.58 316 189.77 304.66 189.77 321.6 161.12 321.6"/>
  <polygon fill="#f7f6f6" points="189.26 302.5 188.46 303.14 175.58 313.43 162.69 303.14 161.89 302.5 189.26 302.5"/>
  <!-- Gradienti laterali -->
  <path fill="url(#g10)" d="M154.71,263.08v6.65l-72.35,12.87c1.22-10.64,4.23-20.73,8.72-29.96l63.63,10.45z"/>
  <path fill="url(#g6)" d="M267.53,282.6l-72.34-12.87v-6.65l63.62-10.45c4.5,9.24,7.51,19.32,8.72,29.96z"/>
</svg>